<svg xmlns="http://www.w3.org/2000/svg" viewBox="0 0 1337.9 440.21">
  <defs>
    <style>
      .cls-1, .cls-2, .cls-3 {
        fill: #ef3535;
      }

      .cls-2 {
        opacity: 0.43;
      }

      .cls-3 {
        font-size: 92.5px;
        font-family: JosefinSans-Bold, Josefin Sans;
        font-weight: 700;
      }
    </style>
  </defs>
  <title>Sports By Orilliance</title>
  <g id="Football">
    <g>
      <path class="cls-1" d="M887.13,562.55l-64.89-51.41,13.08-76.34,74.92-29.47,61.57,46.38-9.7,78Zm-60.45-53.11,61.06,48.38,70.6-30.94,9.12-73.32L909.61,410,839,437.76Z" transform="translate(-211 -287.92)"/>
      <path class="cls-1" d="M998.92,579.06l-41.54-49.85,10.39-77.46,52.62-19,.91.82A157.84,157.84,0,0,1,1058.62,485l.07.2c4.2,14.25-7.64,66.69-8.14,68.91l-.22,1ZM961.67,528,1000,574l46.74-21.81c1.61-7.3,11.53-53.37,8-65.77a157.12,157.12,0,0,0-35.34-49.05l-48,17.36Z" transform="translate(-211 -287.92)"/>
      <path class="cls-1" d="M836.72,437.25,791,419.14l.37-1.7c.17-.78,4.38-19.51,20.84-40.1l.26-.26c1.29-1.13,32.1-27.49,69.27-26.68h0c.76,0,18.76.17,46.62,13.28l1.79.85-19.12,44.32Zm-40.9-20.61,40.92,16.22L908,405.64l16.87-39.09c-26-11.87-43-12.06-43.14-12.06-34.43-.75-64.16,23.67-66.4,25.56A108.9,108.9,0,0,0,795.82,416.64Z" transform="translate(-211 -287.92)"/>
      <path class="cls-1" d="M833.14,641.67l-.65-.36c-41-22.11-53.47-44-54-45l-.11-.23c-6.61-16.52-7.47-62.56-7.51-64.52l0-1.39,53.93-22.26,63.86,51.26v63.38l-.86.61c-14.09,9.95-52.3,18-53.92,18.33Zm-51-47.21c1,1.6,13.75,22.28,51.63,42.9,5.28-1.15,37.79-8.44,50.8-16.92V561.16l-60.45-48.52L775,532.91C775.21,540.81,776.48,580.07,782.14,594.46Z" transform="translate(-211 -287.92)"/>
      <path class="cls-1" d="M1057.09,488.81l-1.26-1.94c-.26-.42-26.94-41.56-37.22-50.26l-.29-.24-.18-.34L988.3,381.48,999.76,378l.78.46c.58.35,14.34,8.75,29.21,25.66,13.72,15.61,30.88,41.69,34.74,77.29l.12,1.09Zm-35.55-55.07c9.69,8.48,31,40.63,36.47,49l2.29-1.92c-7.14-61.15-54.56-94-61.12-98.32l-4.87,1.46Z" transform="translate(-211 -287.92)"/>
      <path class="cls-1" d="M770.54,600.13l-.83-1c-22.3-27.87-28.79-58.41-30.3-79.13-1.64-22.44,1.94-38.09,2.09-38.75l.09-.38.23-.32c5.22-7.46,14-7,17.86-5.68l1.06.36L775,531.33v.28c-.8,28.85,7.23,62.93,7.31,63.27l.46,1.92ZM745.4,482.52a141.85,141.85,0,0,0-1.9,37.28c1.47,19.84,7.63,49,28.57,75.68l5.8-1.59c-1.68-7.67-7.64-36.78-7-62.1l-13.54-53.35C755,478,749.22,477.42,745.4,482.52Z" transform="translate(-211 -287.92)"/>
      <path class="cls-1" d="M908.71,675a193.48,193.48,0,0,1-62-10.64l-.71-.24-15.92-26.22,3.12-.4a173.82,173.82,0,0,0,52.46-17.78l.62-.32.68.12L961,632l8.2,29.18-1.69.68c-6.44,2.63-21.3,8.58-24.87,9.11C940.86,671.51,928.48,675,908.71,675Zm-60-14.28c54,18,92.52,6.42,92.9,6.3l.3-.1h.31c1.56-.14,12.15-4.15,22.08-8.16l-6.52-23.16L887,623.65a179.54,179.54,0,0,1-50.17,17.41Z" transform="translate(-211 -287.92)"/>
      <polygon class="cls-1" points="789.71 290.67 748.82 346.28 675.21 333.19 676.03 271.85 748 240.78 789.71 290.67"/>
      <polygon class="cls-1" points="626.14 148.36 615.51 224.42 562.35 244.05 546.81 185.16 581.98 129.55 626.14 148.36"/>
      <path class="cls-1" d="M927.51,365.53l-17.14,39.74L969.22,453l50.71-18L991.3,382.71S952.87,364.72,927.51,365.53Z" transform="translate(-211 -287.92)"/>
      <path class="cls-1" d="M903.39,675.5c-43.78,0-84.47-17-114.57-48-29.59-30.43-47-72-49-117.14C737.34,455,768,414.76,794.19,390.8c33.72-30.87,70.46-46.53,109.2-46.53,91.32,0,165.61,74.29,165.61,165.62S994.71,675.5,903.39,675.5Zm0-328.78c-38.11,0-74.29,15.44-107.54,45.89-25.79,23.61-56,63.18-53.58,117.63,4.14,92.81,73.41,162.81,161.12,162.81,90,0,163.16-73.2,163.16-163.16S993.35,346.72,903.39,346.72Z" transform="translate(-211 -287.92)"/>
      <path class="cls-1" d="M1048.55,553.64l4.5,27.4s19-45.72,12.14-100.35l-7.64,5.07Z" transform="translate(-211 -287.92)"/>
      <path class="cls-1" d="M849.41,665.28l-15.54-25.36s-40.08-22.9-53.16-44.16l-13.39,2S784,639.11,849.41,665.28Z" transform="translate(-211 -287.92)"/>
    </g>
  </g>
  <g id="Layer_2" data-name="Layer 2">
    <g>
      <path class="cls-1" d="M252.44,594.6Q222.89,573.08,211.17,535a3.7,3.7,0,0,1,2.13-4.53l8.55-3.49a25.78,25.78,0,0,1,32.44,11.94,88.15,88.15,0,0,0,19.27,24.49,69.1,69.1,0,0,0,47.52,18q27.27,0,46.2-14.74T386.2,526.4q0-22-16.06-36.3t-52.58-26.62l-19.8-7q-33.45-11.88-54.56-31.24t-21.12-53.68a75.29,75.29,0,0,1,12.32-41.58q12.32-19.14,34.32-30.58T318,287.92q27.27,0,47.52,10.12t32.34,24.64l.24.29a25.43,25.43,0,0,1-9.78,39.56l-5,2.12a3.67,3.67,0,0,1-4.9-2.1q-5-14.1-18.86-25.79-15.63-13.2-41.14-13.2-24.21,0-41.36,13.64t-17.16,34.32q0,18.48,14.52,30.14t44,21.78l20.68,7c26.69,9.68,47.88,23.52,62.48,36.3C417.29,480.51,424,501,424,526q0,30.36-15.62,51A92.06,92.06,0,0,1,369,607.36,128.38,128.38,0,0,1,320.2,617Q283.24,617,252.44,594.6Z" transform="translate(-211 -287.92)"/>
      <path class="cls-1" d="M470.89,385.6h2.2A32.35,32.35,0,0,1,505.44,418h0a1.09,1.09,0,0,0,1.09,1.09h.05a1.09,1.09,0,0,0,.93-.53q10.11-16.8,30.27-28.29,20.46-11.66,46-11.66A101,101,0,0,1,638.32,394Q663,409.37,677,436.64t14.08,61.16q0,34.32-14.08,61.38t-38.72,42.46A101,101,0,0,1,583.76,617q-25.53,0-46-11.66-20.14-11.48-30.27-27.87a1.07,1.07,0,0,0-.92-.51h0a1.09,1.09,0,0,0-1.09,1.15l1.69,29.62s0,0,0,.06V704a1.09,1.09,0,0,1-1.1,1.09h0a36.31,36.31,0,0,1-36.3-36.31v-282A1.09,1.09,0,0,1,470.89,385.6Zm145,187Q633,562,643.38,542.46t10.34-44.66q0-25.08-10.34-44.66T615.88,423a68.43,68.43,0,0,0-73,0q-17.16,10.56-27.28,29.92T505.44,497.8q0,25.53,10.12,44.88t27.28,29.92a68.43,68.43,0,0,0,73,0Z" transform="translate(-211 -287.92)"/>
    </g>
    <g>
      <path class="cls-1" d="M1114.14,396.12h2.08A27.86,27.86,0,0,1,1144,421.8l1,13.27h0a2,2,0,0,0,1.79-1.06c14.87-26.52,36.48-43.17,60.23-43.17,6.86,0,12.24.63,17.24,2.2a6.58,6.58,0,0,1,4.42,7.68l-5.12,24.07a2.05,2.05,0,0,1-2.61,1.53,57,57,0,0,0-18.61-2.85c-18,0-39.5,12.92-54,48.81a2.13,2.13,0,0,0-.15.79V607.94a2.06,2.06,0,0,1-2.06,2.06h-2.41a31.72,31.72,0,0,1-31.72-31.72V398.17A2.05,2.05,0,0,1,1114.14,396.12Z" transform="translate(-211 -287.92)"/>
      <path class="cls-1" d="M1271.21,543.87V425.6h-4.43a27.4,27.4,0,0,1-27.4-27.4h0l33.44-2.08,2.17-29.84a32.49,32.49,0,0,1,32.41-30.14h0v60h28.46a29.48,29.48,0,0,1,29.48,29.48H1307.4V544.5c0,26.15,8.42,41.3,33.07,41.3.58,0,1.18,0,1.78,0a28.87,28.87,0,0,1,29.58,21.61h0c-12,4.08-26.33,7.92-39.69,7.92C1286.62,615.28,1271.21,586.43,1271.21,543.87Z" transform="translate(-211 -287.92)"/>
      <path class="cls-1" d="M1403.36,561.75h0c18.57,15,37.44,25.34,63.13,25.34,28.08,0,42-15,42-33.22,0-22-25.25-31.74-48.92-40.54-30-11-63.78-25.7-63.78-61.78,0-34.22,27.41-60.71,73.77-60.71a102.08,102.08,0,0,1,38.06,7.5,26,26,0,0,1,11.13,39.72h0c-14.73-10.88-29.85-19-48.77-19-27,0-39.38,14.37-39.38,30.68,0,20.34,23.25,28.07,47.47,37.11,30.85,11.62,65.22,24.17,65.22,64.88,0,34.69-27.55,63.59-78,63.59-18.18,0-36-4.61-51.66-11.92A27.64,27.64,0,0,1,1403.36,561.75Z" transform="translate(-211 -287.92)"/>
    </g>
    <ellipse class="cls-2" cx="693" cy="417.08" rx="106" ry="16"/>
    <text class="cls-3" transform="translate(862 417.08)">By Orilliance</text>
  </g>
</svg>
